<svg width="153" height="64" viewBox="0 0 153 64" fill="none" xmlns="http://www.w3.org/2000/svg">
<path d="M9.484 38.194V64H0.304V0.147995H21.214C27.538 0.147995 30.7 3.14 30.7 9.124V29.116C30.7 34.284 28.422 37.242 23.866 37.99L33.964 64H24.07L14.482 38.194H9.484ZM9.484 7.594V30.85H18.46C19.684 30.85 20.5 30.68 20.908 30.34C21.316 29.932 21.52 29.116 21.52 27.892V10.552C21.52 9.32799 21.316 8.54599 20.908 8.20599C20.5 7.798 19.684 7.594 18.46 7.594H9.484ZM49.8234 0.147995H61.1454C67.4694 0.147995 70.6314 3.14 70.6314 9.124V55.024C70.6314 61.008 67.4694 64 61.1454 64H49.8234C43.4314 64 40.2354 61.008 40.2354 55.024V9.124C40.2354 3.14 43.4314 0.147995 49.8234 0.147995ZM61.4514 53.596V10.552C61.4514 9.32799 61.2474 8.54599 60.8394 8.20599C60.4314 7.798 59.6154 7.594 58.3914 7.594H52.4754C51.2514 7.594 50.4354 7.798 50.0274 8.20599C49.6874 8.54599 49.5174 9.32799 49.5174 10.552V53.596C49.5174 54.82 49.6874 55.636 50.0274 56.044C50.4354 56.384 51.2514 56.554 52.4754 56.554H58.3914C59.6154 56.554 60.4314 56.384 60.8394 56.044C61.2474 55.636 61.4514 54.82 61.4514 53.596ZM113.632 0.147995L100.168 32.176L113.53 64H103.534L90.5804 32.176L103.738 0.147995H113.632ZM80.7884 64V0.147995H89.9684V64H80.7884ZM143.395 64L140.845 49.21H127.381L125.035 64H115.855L127.177 0.147995H140.539L152.677 64H143.395ZM128.503 41.764H139.621L133.807 8.104L128.503 41.764Z" fill="black"/>
</svg>
