<svg width="159" height="69" viewBox="0 0 159 69" fill="none" xmlns="http://www.w3.org/2000/svg">
<path d="M14.8141 40.194V66H5.63408V2.148H26.5441C32.8681 2.148 36.0301 5.14 36.0301 11.124V31.116C36.0301 36.284 33.7521 39.242 29.1961 39.99L39.2941 66H29.4001L19.8121 40.194H14.8141ZM14.8141 9.594V32.85H23.7901C25.0141 32.85 25.8301 32.68 26.2381 32.34C26.6461 31.932 26.8501 31.116 26.8501 29.892V12.552C26.8501 11.328 26.6461 10.546 26.2381 10.206C25.8301 9.798 25.0141 9.594 23.7901 9.594H14.8141ZM55.1535 2.148H66.4755C72.7995 2.148 75.9615 5.14 75.9615 11.124V57.024C75.9615 63.008 72.7995 66 66.4755 66H55.1535C48.7615 66 45.5655 63.008 45.5655 57.024V11.124C45.5655 5.14 48.7615 2.148 55.1535 2.148ZM66.7815 55.596V12.552C66.7815 11.328 66.5775 10.546 66.1695 10.206C65.7615 9.798 64.9455 9.594 63.7215 9.594H57.8055C56.5815 9.594 55.7655 9.798 55.3575 10.206C55.0175 10.546 54.8475 11.328 54.8475 12.552V55.596C54.8475 56.82 55.0175 57.636 55.3575 58.044C55.7655 58.384 56.5815 58.554 57.8055 58.554H63.7215C64.9455 58.554 65.7615 58.384 66.1695 58.044C66.5775 57.636 66.7815 56.82 66.7815 55.596ZM104.172 66H94.8905V45.804L81.2225 2.148H90.6065L99.4805 37.338L107.844 2.148H117.228L104.172 45.804V66Z" fill="black"/>
<path d="M140.03 61.5467L134.42 61.5467C133.98 61.5467 133.705 61.6127 133.595 61.7447C133.463 61.8767 133.397 62.1517 133.397 62.5697L133.397 64.8137C133.397 66.5517 132.528 67.4207 130.79 67.4207L125.081 67.4207C123.343 67.4207 122.474 66.5517 122.474 64.8137L122.474 61.9097C122.474 60.1717 123.343 59.3027 125.081 59.3027L128.249 59.3027L128.249 61.5797L125.444 61.5797C125.004 61.5797 124.729 61.6457 124.619 61.7777C124.487 61.8877 124.421 62.1627 124.421 62.6027L124.421 64.1207C124.421 64.5607 124.487 64.8467 124.619 64.9787C124.729 65.0887 125.004 65.1437 125.444 65.1437L130.427 65.1437C130.845 65.1437 131.12 65.0887 131.252 64.9787C131.384 64.8467 131.45 64.5607 131.45 64.1207L131.45 61.8767C131.45 60.1387 132.319 59.2697 134.057 59.2697L140.393 59.2697C142.131 59.2697 143 60.1387 143 61.8767L143 64.7477C143 66.4857 142.131 67.3547 140.393 67.3547L137.225 67.3547L137.225 65.0777L140.03 65.0777C140.47 65.0777 140.756 65.0227 140.888 64.9127C140.998 64.7807 141.053 64.4947 141.053 64.0547L141.053 62.5697C141.053 62.1517 140.998 61.8767 140.888 61.7447C140.756 61.6127 140.47 61.5467 140.03 61.5467ZM122.474 49.4308L122.474 47.1538L143 47.1538L143 49.4308L133.727 49.4308L133.727 53.8528L143 53.8528L143 56.1298L122.474 56.1298L122.474 53.8528L131.78 53.8528L131.78 49.4308L122.474 49.4308ZM143 36.7972L137.786 37.6552L137.786 41.8132L143 42.5722L143 44.8492L122.474 41.6482L122.474 38.0512L143 34.5202L143 36.7972ZM135.839 41.5492L135.839 37.9522L124.058 39.8662L135.839 41.5492ZM122.474 32.2177L122.474 25.7167C122.474 23.9787 123.343 23.1097 125.081 23.1097L140.393 23.1097C142.131 23.1097 143 23.9787 143 25.7167L143 32.2177L122.474 32.2177ZM140.03 25.3867L125.444 25.3867C125.004 25.3867 124.729 25.4527 124.619 25.5847C124.487 25.7167 124.421 25.9917 124.421 26.4097L124.421 29.9407L141.053 29.9407L141.053 26.4097C141.053 25.9917 140.998 25.7167 140.888 25.5847C140.756 25.4527 140.47 25.3867 140.03 25.3867ZM141.053 17.3724L141.053 11.7294L143 11.7294L143 19.6494L122.474 19.6494L122.474 11.9604L124.421 11.9604L124.421 17.3724L131.351 17.3724L131.351 12.9504L133.298 12.9504L133.298 17.3724L141.053 17.3724ZM140.03 3.86117L134.42 3.86117C133.98 3.86117 133.705 3.92717 133.595 4.05917C133.463 4.19117 133.397 4.46617 133.397 4.88417L133.397 7.12817C133.397 8.86617 132.528 9.73517 130.79 9.73517L125.081 9.73518C123.343 9.73518 122.474 8.86618 122.474 7.12818L122.474 4.22417C122.474 2.48617 123.343 1.61717 125.081 1.61717L128.249 1.61717L128.249 3.89417L125.444 3.89417C125.004 3.89417 124.729 3.96017 124.619 4.09217C124.487 4.20217 124.421 4.47717 124.421 4.91718L124.421 6.43518C124.421 6.87518 124.487 7.16118 124.619 7.29317C124.729 7.40318 125.004 7.45818 125.444 7.45818L130.427 7.45817C130.845 7.45817 131.12 7.40317 131.252 7.29317C131.384 7.16117 131.45 6.87517 131.45 6.43517L131.45 4.19117C131.45 2.45317 132.319 1.58417 134.057 1.58417L140.393 1.58417C142.131 1.58417 143 2.45317 143 4.19117L143 7.06217C143 8.80017 142.131 9.66917 140.393 9.66917L137.225 9.66917L137.225 7.39217L140.03 7.39217C140.47 7.39217 140.756 7.33717 140.888 7.22717C140.998 7.09517 141.053 6.80917 141.053 6.36917L141.053 4.88417C141.053 4.46617 140.998 4.19117 140.888 4.05917C140.756 3.92717 140.47 3.86117 140.03 3.86117Z" fill="black"/>
</svg>
